<?xml version="1.0" encoding="UTF-8" standalone="no"?><!DOCTYPE svg PUBLIC "-//W3C//DTD SVG 1.1//EN" "http://www.w3.org/Graphics/SVG/1.1/DTD/svg11.dtd"><svg width="100%" height="100%" viewBox="0 0 1494 829" version="1.1" xmlns="http://www.w3.org/2000/svg" xmlns:xlink="http://www.w3.org/1999/xlink" xml:space="preserve" xmlns:serif="http://www.serif.com/" style="fill-rule:evenodd;clip-rule:evenodd;stroke-linejoin:round;stroke-miterlimit:2;"><path d="M539.061,586.451l-229.291,6.268l-113.985,235.233l227.12,-0l116.156,-241.501Z" style="fill:#fff;"/><path d="M682.228,240.91l115.95,-240.91l-227.12,0l-118.121,247.178l229.291,-6.268Z" style="fill:#fff;"/><path d="M804.8,579.172l-229.291,6.268l-116.5,242.497l227.12,-0l118.671,-248.765Z" style="fill:#fff;"/><path d="M947.948,233.65l113.435,-233.646l-227.12,-0l-115.606,239.915l229.291,-6.269Z" style="fill:#fff;"/><path d="M1069.57,571.95l-229.29,6.268l-119.009,249.735l227.119,-0l121.18,-256.003Z" style="fill:#fff;"/><path d="M1212.71,226.41l110.925,-226.408l-227.118,-0l-113.098,232.676l229.291,-6.268Z" style="fill:#fff;"/><path d="M1426.66,255.469l-509.727,-0l7.557,-21.817l568.535,-15.542l-66.368,195.869l0,-158.51l0.003,-0Zm-1300.18,-0l798.018,-21.817l-7.556,21.817l-790.462,-0Z" style="fill:#fff;"/><path d="M1366.55,563.833l-1366.55,37.358l66.368,-195.87l0,158.512l1300.18,0Z" style="fill:#fff;"/><g><g><g><g transform="matrix(1,0,0,0.5,2.84217e-14,262.497)"><text x="144.049px" y="524.995px" style="font-family:'Haettenschweiler', sans-serif;font-size:634.252px;fill:#fff;">S</text></g></g><g><g transform="matrix(1,0,0,0.5,5.68434e-14,262.497)"><text x="399.526px" y="524.995px" style="font-family:'Haettenschweiler', sans-serif;font-size:634.252px;fill:#fff;">URGE</text></g></g></g></g></svg>