<?xml version="1.0" encoding="UTF-8" standalone="no"?><!DOCTYPE svg PUBLIC "-//W3C//DTD SVG 1.1//EN" "http://www.w3.org/Graphics/SVG/1.1/DTD/svg11.dtd"><svg width="100%" height="100%" viewBox="0 0 3188 1768" version="1.1" xmlns="http://www.w3.org/2000/svg" xmlns:xlink="http://www.w3.org/1999/xlink" xml:space="preserve" xmlns:serif="http://www.serif.com/" style="fill-rule:evenodd;clip-rule:evenodd;stroke-linejoin:round;stroke-miterlimit:2;"><path d="M1150.93,1252.11l-489.55,13.384l-243.366,502.237l484.916,0l248,-515.621Z" style="fill:#ff6c01;"/><path d="M1456.6,514.358l247.562,-514.358l-484.916,0l-252.196,527.742l489.55,-13.384Z" style="fill:#ff6c01;"/><path d="M1718.3,1236.57l-489.55,13.383l-248.737,517.746l484.916,-0l253.371,-531.129Z" style="fill:#eb0f29;"/><path d="M2023.93,498.858l242.192,-498.85l-484.917,0l-246.825,512.234l489.55,-13.384Z" style="fill:#eb0f29;"/><path d="M2283.6,1221.15l-489.55,13.383l-254.092,533.2l484.913,0l258.729,-546.583Z" style="fill:#ff6c01;"/><path d="M2589.22,483.4l236.833,-483.396l-484.912,0l-241.471,496.779l489.55,-13.383Z" style="fill:#ff6c01;"/><path d="M3046.01,545.442l-1088.3,-0l16.133,-46.58l1213.86,-33.183l-141.7,418.192l-0,-338.429Zm-2775.98,-0l1703.82,-46.58l-16.133,46.58l-1687.68,-0Z" style="fill:#ff6c01;"/><path d="M2917.68,1203.82l-2917.68,79.762l141.7,-418.196l0,338.434l2775.98,-0Z" style="fill:#ff6c01;"/><g><g><g transform="matrix(1,0,0,0.5,2.84217e-14,560.448)"><text x="247.554px" y="1120.9px" style="font-family:'Haettenschweiler', sans-serif;font-size:1354.17px;fill:#017152;">S</text></g><g transform="matrix(1,0,0,0.5,0,560.448)"><text x="793.013px" y="1120.9px" style="font-family:'Haettenschweiler', sans-serif;font-size:1354.17px;fill:#017152;">URGE</text></g></g></g></svg>